<svg version="1.1" xmlns="http://www.w3.org/2000/svg" xmlns:xlink="http://www.w3.org/1999/xlink" width="21" height="22"><defs/><g><path fill="rgb(229,57,53)" stroke="none" paint-order="stroke fill markers" fill-rule="evenodd" d=" M 18.61779022216797 10.682025372982025 C 18.306854248046875 8.865493059158325 17.449005126953125 7.213627815246582 16.141746520996094 5.906507194042206 C 14.7633056640625 4.531857490539551 13.017852783203125 3.659000813961029 11.092498779296875 3.3894039392471313 C 11.092498779296875 3.3894039392471313 11.287277221679688 1.9998632073402405 11.287277221679688 1.9998632073402405 C 13.516014099121094 2.310843288898468 15.534980773925781 3.3184118270874023 17.130630493164062 4.91400283575058 C 18.643997192382812 6.430809915065765 19.63654327392578 8.341190338134766 19.999893188476562 10.446019887924194 C 19.999893188476562 10.446019887924194 18.61779022216797 10.682025372982025 18.61779022216797 10.682025372982025 Z M 14.624717712402344 7.352322161197662 C 15.534980773925781 8.266215741634369 16.134307861328125 9.416114807128906 16.351516723632812 10.68583470582962 C 16.351516723632812 10.68583470582962 14.969413757324219 10.921840190887451 14.969413757324219 10.921840190887451 C 14.80084228515625 9.940417528152466 14.340103149414062 9.049033641815186 13.635833740234375 8.344826519489288 C 12.890480041503906 7.599582493305206 11.946571350097656 7.131207704544067 10.908935546875 6.985067844390869 C 10.908935546875 6.985067844390869 11.103713989257812 5.595527112483978 11.103713989257812 5.595527112483978 C 12.444732666015625 5.782877027988434 13.662155151367188 6.389599859714508 14.624717712402344 7.352322161197662 Z M 7.8748779296875 11.817033410072327 C 8.833778381347656 12.99290519952774 9.916389465332031 14.03804761171341 11.208656311035156 14.85082072019577 C 11.485832214355469 15.023106455802917 11.792991638183594 15.150545954704285 12.081382751464844 15.307767510414124 C 12.227523803710938 15.390187621116638 12.328575134277344 15.36404174566269 12.448509216308594 15.240411579608917 C 12.886703491210938 14.790910303592682 13.332450866699219 14.349027693271637 13.7781982421875 13.90697193145752 C 14.362533569335938 13.326394975185394 15.096672058105469 13.326394975185394 15.684783935546875 13.90697193145752 C 16.4002685546875 14.618624567985535 17.115753173828125 15.33027720451355 17.827346801757812 16.04573917388916 C 18.423011779785156 16.645016491413116 18.419235229492188 17.379005670547485 17.819908142089844 17.985901653766632 C 17.415359497070312 18.39419287443161 16.984603881835938 18.783783733844757 16.60248565673828 19.210602164268494 C 16.044357299804688 19.83619850873947 15.347640991210938 20.038439452648163 14.546096801757812 19.99342006444931 C 13.381202697753906 19.929700314998627 12.309921264648438 19.544091939926147 11.27606201171875 19.04212576150894 C 8.97991943359375 17.925991237163544 7.017143249511719 16.37905579805374 5.37274169921875 14.423829138278961 C 4.1553192138671875 12.978014171123505 3.1515579223632812 11.401123523712158 2.4922637939453125 9.625801265239716 C 2.1701126098632812 8.768008768558502 1.9415740966796875 7.887879729270935 2.01275634765625 6.955112636089325 C 2.0577316284179688 6.38215434551239 2.2712783813476562 5.89161616563797 2.6944808959960938 5.490597307682037 C 3.1515579223632812 5.056333363056183 3.5823135375976562 4.603022754192352 4.0317230224609375 4.161140143871307 C 4.616058349609375 3.584199368953705 5.350311279296875 3.584199368953705 5.9383087158203125 4.157330811023712 C 6.301658630371094 4.512983977794647 6.657569885253906 4.876428961753845 7.017143249511719 5.2358914613723755 C 7.365501403808594 5.58808159828186 7.713859558105469 5.932826220989227 8.062217712402344 6.284670054912567 C 8.676536560058594 6.9026477336883545 8.676536560058594 7.62191903591156 8.065994262695312 8.236260533332825 C 7.627685546875 8.67814314365387 7.193153381347656 9.120198905467987 6.747406005859375 9.550826668739319 C 6.6313629150390625 9.667011320590973 6.620033264160156 9.7606862783432 6.680000305175781 9.903016805648804 C 6.975944519042969 10.607050776481628 7.399147033691406 11.232473969459534 7.8748779296875 11.817033410072327 Z"/></g></svg>